<svg width="296" height="148" viewBox="0 0 296 148" fill="none" xmlns="http://www.w3.org/2000/svg">
<rect width="296" height="148" rx="74" fill="#171725"/>
<path d="M120 100L120 78.24C120 77.12 119.92 76.0533 119.76 75.04C119.6 73.9733 119.307 73.0667 118.88 72.32C118.453 71.5733 117.867 70.9867 117.12 70.56C116.427 70.08 115.493 69.84 114.32 69.84C113.2 69.84 112.213 70.08 111.36 70.56C110.56 71.04 109.867 71.68 109.28 72.48C108.747 73.28 108.347 74.2133 108.08 75.28C107.813 76.2933 107.68 77.36 107.68 78.48L107.68 100H94.56V77.28C94.56 74.9867 94.1067 73.1733 93.2 71.84C92.2933 70.5067 90.8533 69.84 88.88 69.84C86.8 69.84 85.1733 70.6667 84 72.32C82.88 73.9733 82.32 76 82.32 78.4V100H69.12L69.12 60.16H81.84V65.68H82C82.48 64.8267 83.0667 64 83.76 63.2C84.5067 62.4 85.3867 61.7067 86.4 61.12C87.4133 60.48 88.5333 59.9733 89.76 59.6C91.04 59.2267 92.4267 59.04 93.92 59.04C96.8 59.04 99.2267 59.6267 101.2 60.8C103.227 61.9733 104.8 63.6533 105.92 65.84C107.253 63.76 108.96 62.1067 111.04 60.88C113.12 59.6533 115.653 59.04 118.64 59.04C121.36 59.04 123.627 59.5467 125.44 60.56C127.307 61.52 128.8 62.8 129.92 64.4C131.04 65.9467 131.84 67.7067 132.32 69.68C132.853 71.6 133.12 73.4933 133.12 75.36V100H120ZM156.466 47.44C156.466 48.4533 156.253 49.4133 155.826 50.32C155.453 51.1733 154.92 51.92 154.226 52.56C153.586 53.2 152.786 53.7067 151.826 54.08C150.92 54.4533 149.96 54.64 148.946 54.64C146.813 54.64 145.026 53.9467 143.586 52.56C142.146 51.12 141.426 49.4133 141.426 47.44C141.426 46.48 141.613 45.5733 141.986 44.72C142.36 43.8133 142.893 43.04 143.586 42.4C144.28 41.76 145.08 41.2533 145.986 40.88C146.893 40.4533 147.88 40.24 148.946 40.24C149.96 40.24 150.92 40.4267 151.826 40.8C152.786 41.1733 153.586 41.68 154.226 42.32C154.92 42.96 155.453 43.7333 155.826 44.64C156.253 45.4933 156.466 46.4267 156.466 47.44ZM142.386 100V60.16H155.506V100H142.386ZM191.258 100V78.24C191.258 77.12 191.151 76.0533 190.938 75.04C190.778 74.0267 190.485 73.1467 190.058 72.4C189.631 71.6 189.018 70.9867 188.218 70.56C187.471 70.08 186.511 69.84 185.338 69.84C184.165 69.84 183.125 70.08 182.218 70.56C181.365 70.9867 180.645 71.6 180.058 72.4C179.471 73.2 179.018 74.1333 178.698 75.2C178.431 76.2133 178.298 77.28 178.298 78.4V100H165.098V60.16L177.818 60.16V65.68H177.978C178.458 64.8267 179.071 64 179.818 63.2C180.618 62.3467 181.525 61.6267 182.538 61.04C183.605 60.4533 184.751 59.9733 185.978 59.6C187.205 59.2267 188.511 59.04 189.898 59.04C192.565 59.04 194.831 59.52 196.698 60.48C198.565 61.44 200.058 62.6933 201.178 64.24C202.351 65.7333 203.178 67.4667 203.658 69.44C204.191 71.4133 204.458 73.3867 204.458 75.36V100L191.258 100ZM227.835 47.44C227.835 48.4533 227.622 49.4133 227.195 50.32C226.822 51.1733 226.288 51.92 225.595 52.56C224.955 53.2 224.155 53.7067 223.195 54.08C222.288 54.4533 221.328 54.64 220.315 54.64C218.182 54.64 216.395 53.9467 214.955 52.56C213.515 51.12 212.795 49.4133 212.795 47.44C212.795 46.48 212.982 45.5733 213.355 44.72C213.728 43.8133 214.262 43.04 214.955 42.4C215.648 41.76 216.448 41.2533 217.355 40.88C218.262 40.4533 219.248 40.24 220.315 40.24C221.328 40.24 222.288 40.4267 223.195 40.8C224.155 41.1733 224.955 41.68 225.595 42.32C226.288 42.96 226.822 43.7333 227.195 44.64C227.622 45.4933 227.835 46.4267 227.835 47.44ZM213.755 100V60.16L226.875 60.16V100H213.755Z" fill="white"/>
</svg>
