<svg width="1300" height="480" viewBox="0 0 1300 480" fill="none" xmlns="http://www.w3.org/2000/svg">
<path d="M437.175 261.459C431.621 271.048 432.956 283.384 440.395 291.582C426.572 306.789 406.903 315.492 386.36 315.492C383.443 315.492 380.525 315.323 377.698 314.987C378.091 311.869 378.281 308.707 378.281 305.6C378.281 264.465 344.79 231 303.635 231C262.48 231 229 264.465 229 305.6C229 317.578 231.76 329.017 237.202 339.615C240.5 345.368 244.326 350.863 248.59 355.954L248.635 355.999C254.222 362.661 260.595 368.694 267.574 373.92C272.298 392.503 287.602 406.23 306.586 408.91L306.866 408.944L307.001 408.697C309.537 404.122 311.276 399.198 312.173 394.04C326.793 397.079 341.996 397.191 356.649 394.376C363.998 402.249 373.861 407.407 384.464 408.899L384.744 408.933L384.879 408.686C388.727 401.755 390.758 393.871 390.758 385.886C390.758 384.597 390.702 383.273 390.59 381.939C397.883 377.834 404.727 372.911 410.931 367.315C431.239 348.979 444.154 324.026 447.374 296.987C453.118 300.049 459.862 300.823 466.134 299.141C472.776 297.357 478.318 293.107 481.763 287.152L482.178 286.446L437.612 260.73L437.197 261.437L437.175 261.459ZM328.151 272.539C332.796 272.539 336.566 276.319 336.566 280.95C336.566 285.582 332.784 289.373 328.151 289.373C323.517 289.373 319.724 285.593 319.724 280.95C319.724 276.307 323.506 272.539 328.151 272.539ZM335.23 386.01C322.675 386.01 310.412 383.767 298.777 379.348C281.756 372.866 266.71 361.898 255.277 347.644C252.405 344.067 249.768 340.287 247.434 336.43C242.262 327.054 239.536 316.4 239.536 305.6C239.536 290.057 245.168 275.085 255.389 263.422C277.257 268.928 295.905 284.472 305.284 305.017C306.115 307.518 307.102 310.019 308.213 312.43C315.786 329.017 329.071 342.317 345.631 349.921C344.543 353.947 343.982 358.096 343.982 362.291C343.982 370.219 345.99 378.059 349.805 384.978C344.981 385.662 340.089 386.01 335.23 386.01ZM388.379 371.173C386.651 365.935 384.048 361.091 380.615 356.751C393.361 356.201 405.737 352.455 416.597 345.861C408.811 356.01 399.33 364.511 388.379 371.162V371.173Z" fill="#2352C8"/>
<path d="M512.539 371.465V260.775H539.445V348.172H582.305V371.465H512.539Z" fill="#171725"/>
<path d="M634.59 373.966C628.778 373.966 623.179 372.968 617.928 370.994C612.689 369.031 608.055 366.216 604.161 362.628C600.268 359.05 597.138 354.631 594.849 349.495C592.56 344.359 591.404 338.55 591.404 332.213C591.404 325.877 592.56 320.101 594.849 315.021C597.126 309.941 600.257 305.578 604.161 302.046C608.055 298.513 612.689 295.788 617.928 293.915C623.168 292.042 628.778 291.1 634.59 291.1C640.402 291.1 646.135 292.042 651.33 293.915C656.514 295.777 661.147 298.513 665.097 302.046C669.035 305.578 672.199 309.941 674.477 315.021C676.766 320.113 677.921 325.899 677.921 332.213C677.921 338.527 676.766 344.348 674.477 349.495C672.199 354.631 669.035 359.05 665.097 362.628C661.147 366.205 656.514 369.02 651.33 370.994C646.135 372.968 640.503 373.966 634.59 373.966ZM634.59 312.363C631.583 312.363 628.901 312.946 626.612 314.079C624.324 315.223 622.405 316.726 620.902 318.531C619.398 320.348 618.242 322.479 617.457 324.868C616.683 327.256 616.279 329.724 616.279 332.213C616.279 334.703 616.672 337.181 617.457 339.559C618.231 341.948 619.42 344.123 620.98 346.052C622.54 347.97 624.481 349.529 626.77 350.661C629.047 351.805 631.729 352.377 634.747 352.377C637.765 352.377 640.447 351.794 642.724 350.661C645.013 349.518 646.954 347.97 648.514 346.052C650.073 344.134 651.251 341.948 652.037 339.559C652.811 337.181 653.215 334.703 653.215 332.213C653.215 329.724 652.789 327.256 651.958 324.868C651.128 322.479 649.916 320.348 648.357 318.531C646.797 316.715 644.856 315.223 642.567 314.079C640.278 312.935 637.597 312.363 634.59 312.363V312.363Z" fill="#171725"/>
<path d="M729.264 408.989C722.419 408.989 715.284 407.935 708.069 405.86C700.855 403.785 694.515 400.735 689.22 396.788L702.044 378.496C705.78 381.816 709.965 384.317 714.476 385.92C718.997 387.524 723.497 388.343 727.85 388.343C735.322 388.343 740.932 386.347 744.511 382.399C748.091 378.451 749.908 373.147 749.908 366.609V361.394L748.786 362.728C746.475 365.465 743.423 367.719 739.743 369.424C735.693 371.296 731.014 372.239 725.819 372.239C719.895 372.239 714.588 371.162 710.021 369.031C705.455 366.912 701.539 363.984 698.364 360.351C695.2 356.729 692.754 352.433 691.093 347.611C689.433 342.789 688.591 337.607 688.591 332.213C688.591 326.819 689.433 321.615 691.093 316.737C692.754 311.858 695.2 307.496 698.364 303.761C701.528 300.027 705.444 296.999 710.021 294.767C714.588 292.536 719.85 291.403 725.662 291.403C730.531 291.403 735.266 292.401 739.743 294.375C743.749 296.147 747.103 298.838 749.695 302.393L750.84 303.963V291.414H775.086V364.119C775.086 371.689 773.975 378.373 771.798 383.98C769.622 389.576 766.514 394.287 762.576 397.976C758.626 401.655 753.757 404.447 748.102 406.264C742.436 408.081 736.097 409 729.252 409L729.264 408.989ZM731.766 312.363C728.86 312.363 726.257 312.89 724.024 313.922C721.791 314.965 719.872 316.378 718.313 318.139C716.753 319.911 715.542 322.019 714.711 324.397C713.881 326.774 713.455 329.353 713.455 332.056C713.455 334.759 713.881 337.181 714.711 339.559C715.542 341.948 716.753 344.078 718.313 345.895C719.872 347.712 721.791 349.181 724.024 350.269C726.257 351.357 728.86 351.906 731.766 351.906C734.672 351.906 737.331 351.357 739.665 350.269C741.998 349.181 743.995 347.734 745.611 345.974C747.216 344.213 748.483 342.105 749.37 339.716C750.256 337.327 750.705 334.748 750.705 332.056C750.705 329.365 750.256 326.942 749.37 324.554C748.483 322.165 747.204 320.034 745.533 318.217C743.872 316.4 741.875 314.954 739.586 313.922C737.297 312.879 734.672 312.363 731.766 312.363V312.363Z" fill="#171725"/>
<path d="M820.897 260.775H794.777V371.476H820.897V260.775Z" fill="#171725"/>
<path d="M865.945 373.338C862.826 373.338 859.572 372.911 856.251 372.082C852.93 371.252 849.856 369.883 847.096 368.022C844.347 366.16 842.058 363.626 840.296 360.519C838.535 357.413 837.637 353.521 837.637 348.946C837.637 343.338 839.186 338.763 842.249 335.342C845.312 331.922 849.306 329.241 854.142 327.368C858.966 325.496 864.419 324.24 870.332 323.612C876.021 323.017 881.653 322.703 887.061 322.669H887.701V321.413C887.701 317.522 886.365 314.729 883.639 312.89C880.935 311.073 877.569 310.154 873.631 310.154C869.995 310.154 866.439 310.939 863.073 312.498C859.696 314.057 856.778 315.952 854.389 318.128L841.407 304.21C845.974 299.859 851.37 296.539 857.44 294.364C863.51 292.188 869.805 291.078 876.133 291.078C882.461 291.078 888.273 291.896 892.794 293.5C897.305 295.115 901.019 297.638 903.824 301.003C906.629 304.378 908.704 308.685 910.006 313.821C911.307 318.957 911.958 325.148 911.958 332.191V371.431H888.497V362.571L887.342 364.175C885.378 366.9 882.584 369.087 879.028 370.646C875.033 372.407 870.635 373.304 865.968 373.304L865.945 373.338ZM885.187 337.529C882.416 337.529 879.544 337.664 876.66 337.921C873.81 338.179 871.23 338.684 868.997 339.402C866.764 340.131 864.89 341.207 863.443 342.609C861.973 344.034 861.255 345.839 861.255 348.161C861.255 349.618 861.592 350.874 862.276 351.917C862.949 352.949 863.813 353.802 864.857 354.418C865.9 355.035 867.101 355.484 868.458 355.753C869.805 356.011 871.117 356.145 872.374 356.145C877.558 356.145 881.586 354.699 884.346 351.85C887.095 349.002 888.486 345.076 888.486 340.198V337.54H885.198L885.187 337.529Z" fill="#171725"/>
<path d="M958.588 373.965C952.26 373.965 945.966 372.945 939.896 370.915C933.826 368.896 928.687 365.868 924.648 361.921L939.043 346.758C941.332 349.248 944.171 351.356 947.492 353.016C950.813 354.676 954.392 355.517 958.128 355.517C960.204 355.517 962.291 355.012 964.31 354.037C966.33 353.05 967.362 351.289 967.362 348.799C967.362 346.31 966.094 344.627 963.615 343.484C961.124 342.34 957.175 341.128 951.879 339.884C949.164 339.256 946.437 338.415 943.744 337.383C941.04 336.351 938.594 334.927 936.474 333.166C934.342 331.405 932.58 329.196 931.234 326.594C929.888 324.004 929.203 320.852 929.203 317.219C929.203 312.553 930.202 308.527 932.176 305.253C934.14 301.989 936.721 299.286 939.84 297.2C942.948 295.126 946.448 293.578 950.241 292.591C954.033 291.604 957.848 291.111 961.584 291.111C967.396 291.111 973.152 292.03 978.706 293.847C984.26 295.664 989.017 298.423 992.865 302.056L978.784 316.602C976.709 314.628 974.229 312.946 971.435 311.6C968.63 310.254 965.634 309.57 962.515 309.57C960.125 309.57 957.893 310.041 955.873 310.972C953.854 311.903 952.821 313.54 952.821 315.817C952.821 318.093 953.954 319.574 956.187 320.505C958.42 321.435 962.078 322.49 967.059 323.634C969.965 324.262 972.939 325.148 975.901 326.291C978.863 327.435 981.567 328.961 983.957 330.822C986.335 332.684 988.288 335.005 989.746 337.697C991.205 340.4 991.934 343.663 991.934 347.386C991.934 352.265 990.935 356.448 988.961 359.812C986.986 363.188 984.383 365.947 981.219 368.021C978.055 370.096 974.453 371.621 970.504 372.552C966.554 373.483 962.56 373.954 958.611 373.954L958.588 373.965Z" fill="#171725"/>
<path d="M1036.24 373.965C1029.91 373.965 1023.62 372.945 1017.55 370.915C1011.47 368.885 1006.34 365.868 1002.3 361.921L1016.7 346.758C1018.99 349.248 1021.82 351.356 1025.15 353.016C1028.47 354.676 1032.05 355.517 1035.78 355.517C1037.86 355.517 1039.93 355.012 1041.96 354.037C1043.98 353.05 1045.02 351.289 1045.02 348.799C1045.02 346.31 1043.75 344.627 1041.26 343.484C1038.77 342.34 1034.82 341.128 1029.52 339.884C1026.81 339.256 1024.08 338.415 1021.39 337.383C1018.68 336.351 1016.24 334.927 1014.12 333.166C1011.98 331.405 1010.22 329.196 1008.88 326.594C1007.53 324.004 1006.85 320.852 1006.85 317.219C1006.85 312.553 1007.84 308.527 1009.82 305.253C1011.78 301.989 1014.36 299.286 1017.48 297.2C1020.59 295.126 1024.09 293.578 1027.88 292.591C1031.68 291.604 1035.49 291.111 1039.23 291.111C1045.04 291.111 1050.79 292.03 1056.36 293.847C1061.91 295.664 1066.68 298.423 1070.52 302.056L1056.44 316.602C1054.36 314.628 1051.88 312.946 1049.09 311.6C1046.28 310.254 1043.29 309.57 1040.17 309.57C1037.78 309.57 1035.55 310.041 1033.53 310.972C1031.51 311.903 1030.47 313.54 1030.47 315.817C1030.47 318.093 1031.61 319.574 1033.84 320.505C1036.07 321.435 1039.73 322.49 1044.71 323.634C1047.62 324.262 1050.59 325.148 1053.55 326.291C1056.52 327.435 1059.22 328.961 1061.61 330.822C1063.99 332.684 1065.94 335.005 1067.4 337.697C1068.85 340.4 1069.59 343.663 1069.59 347.386C1069.59 352.265 1068.59 356.448 1066.61 359.812C1064.64 363.188 1062.04 365.947 1058.87 368.021C1055.71 370.096 1052.11 371.621 1048.16 372.552C1044.21 373.483 1040.21 373.954 1036.26 373.954L1036.24 373.965Z" fill="#171725"/>
<path d="M191 180H154L191 219V180Z" fill="#171725"/>
<rect x="28" y="45" width="270" height="135" rx="67.5" fill="#171725"/>
<path d="M135 138V116.24C135 115.12 134.92 114.053 134.76 113.04C134.6 111.973 134.307 111.067 133.88 110.32C133.453 109.573 132.867 108.987 132.12 108.56C131.427 108.08 130.493 107.84 129.32 107.84C128.2 107.84 127.213 108.08 126.36 108.56C125.56 109.04 124.867 109.68 124.28 110.48C123.747 111.28 123.347 112.213 123.08 113.28C122.813 114.293 122.68 115.36 122.68 116.48L122.68 138H109.56V115.28C109.56 112.987 109.107 111.173 108.2 109.84C107.293 108.507 105.853 107.84 103.88 107.84C101.8 107.84 100.173 108.667 99 110.32C97.88 111.973 97.32 114 97.32 116.4V138H84.12L84.12 98.16H96.84V103.68H97C97.48 102.827 98.0667 102 98.76 101.2C99.5067 100.4 100.387 99.7067 101.4 99.12C102.413 98.48 103.533 97.9733 104.76 97.6C106.04 97.2267 107.427 97.04 108.92 97.04C111.8 97.04 114.227 97.6267 116.2 98.8C118.227 99.9733 119.8 101.653 120.92 103.84C122.253 101.76 123.96 100.107 126.04 98.88C128.12 97.6533 130.653 97.04 133.64 97.04C136.36 97.04 138.627 97.5467 140.44 98.56C142.307 99.52 143.8 100.8 144.92 102.4C146.04 103.947 146.84 105.707 147.32 107.68C147.853 109.6 148.12 111.493 148.12 113.36V138H135ZM171.466 85.44C171.466 86.4533 171.253 87.4133 170.826 88.32C170.453 89.1733 169.92 89.92 169.226 90.56C168.586 91.2 167.786 91.7067 166.826 92.08C165.92 92.4533 164.96 92.64 163.946 92.64C161.813 92.64 160.026 91.9467 158.586 90.56C157.146 89.12 156.426 87.4133 156.426 85.44C156.426 84.48 156.613 83.5733 156.986 82.72C157.36 81.8133 157.893 81.04 158.586 80.4C159.28 79.76 160.08 79.2533 160.986 78.88C161.893 78.4533 162.88 78.24 163.946 78.24C164.96 78.24 165.92 78.4267 166.826 78.8C167.786 79.1733 168.586 79.68 169.226 80.32C169.92 80.96 170.453 81.7333 170.826 82.64C171.253 83.4933 171.466 84.4267 171.466 85.44ZM157.386 138V98.16H170.506V138H157.386ZM206.258 138V116.24C206.258 115.12 206.151 114.053 205.938 113.04C205.778 112.027 205.485 111.147 205.058 110.4C204.631 109.6 204.018 108.987 203.218 108.56C202.471 108.08 201.511 107.84 200.338 107.84C199.165 107.84 198.125 108.08 197.218 108.56C196.365 108.987 195.645 109.6 195.058 110.4C194.471 111.2 194.018 112.133 193.698 113.2C193.431 114.213 193.298 115.28 193.298 116.4V138H180.098V98.16L192.818 98.16V103.68H192.978C193.458 102.827 194.071 102 194.818 101.2C195.618 100.347 196.525 99.6267 197.538 99.04C198.605 98.4533 199.751 97.9733 200.978 97.6C202.205 97.2267 203.511 97.04 204.898 97.04C207.565 97.04 209.831 97.52 211.698 98.48C213.565 99.44 215.058 100.693 216.178 102.24C217.351 103.733 218.178 105.467 218.658 107.44C219.191 109.413 219.458 111.387 219.458 113.36V138L206.258 138ZM242.835 85.44C242.835 86.4533 242.622 87.4133 242.195 88.32C241.822 89.1733 241.288 89.92 240.595 90.56C239.955 91.2 239.155 91.7067 238.195 92.08C237.288 92.4533 236.328 92.64 235.315 92.64C233.182 92.64 231.395 91.9467 229.955 90.56C228.515 89.12 227.795 87.4133 227.795 85.44C227.795 84.48 227.982 83.5733 228.355 82.72C228.728 81.8133 229.262 81.04 229.955 80.4C230.648 79.76 231.448 79.2533 232.355 78.88C233.262 78.4533 234.248 78.24 235.315 78.24C236.328 78.24 237.288 78.4267 238.195 78.8C239.155 79.1733 239.955 79.68 240.595 80.32C241.288 80.96 241.822 81.7333 242.195 82.64C242.622 83.4933 242.835 84.4267 242.835 85.44ZM228.755 138V98.16H241.875V138H228.755Z" fill="white"/>
</svg>
