<svg width="1228" height="178" viewBox="0 0 1228 178" fill="none" xmlns="http://www.w3.org/2000/svg">
<path d="M594.175 30.4592C588.621 40.0477 589.956 52.3839 597.395 60.5819C583.572 75.789 563.903 84.4917 543.36 84.4917C540.443 84.4917 537.525 84.3234 534.698 83.987C535.091 80.8693 535.281 77.7068 535.281 74.6003C535.281 33.4647 501.79 0 460.635 0C419.48 0 386 33.4647 386 74.6003C386 86.5776 388.76 98.0166 394.202 108.615C397.5 114.368 401.326 119.863 405.59 124.954L405.635 124.999C411.222 131.661 417.595 137.694 424.574 142.92C429.298 161.503 444.602 175.23 463.586 177.91L463.866 177.944L464.001 177.697C466.537 173.122 468.276 168.198 469.173 163.04C483.793 166.079 498.996 166.191 513.649 163.376C520.998 171.249 530.861 176.407 541.464 177.899L541.744 177.933L541.879 177.686C545.727 170.755 547.758 162.871 547.758 154.886C547.758 153.597 547.702 152.273 547.59 150.939C554.883 146.834 561.727 141.911 567.931 136.315C588.239 117.979 601.154 93.0261 604.374 65.9874C610.118 69.049 616.862 69.8228 623.134 68.1406C629.776 66.3575 635.318 62.1071 638.763 56.1521L639.178 55.4456L594.612 29.7302L594.197 30.4367L594.175 30.4592ZM485.151 41.5393C489.796 41.5393 493.566 45.3187 493.566 49.9503C493.566 54.582 489.784 58.3726 485.151 58.3726C480.517 58.3726 476.724 54.5932 476.724 49.9503C476.724 45.3075 480.506 41.5393 485.151 41.5393ZM492.23 155.01C479.675 155.01 467.412 152.767 455.777 148.348C438.756 141.866 423.71 130.898 412.277 116.644C409.405 113.067 406.768 109.287 404.434 105.43C399.262 96.054 396.536 85.4001 396.536 74.6003C396.536 59.0567 402.168 44.085 412.389 32.4217C434.257 37.9282 452.905 53.4718 462.284 74.0171C463.115 76.518 464.102 79.0189 465.213 81.43C472.786 98.0166 486.071 111.317 502.631 118.921C501.543 122.947 500.982 127.096 500.982 131.291C500.982 139.219 502.99 147.059 506.805 153.978C501.981 154.662 497.089 155.01 492.23 155.01ZM545.379 140.173C543.651 134.935 541.048 130.091 537.615 125.751C550.361 125.201 562.737 121.455 573.597 114.861C565.811 125.01 556.33 133.511 545.379 140.162V140.173Z" fill="#2352C8"/>
<path d="M669.539 140.464V29.7751H696.445V117.171H739.305V140.464H669.539Z" fill="#171725"/>
<path d="M791.59 142.965C785.778 142.965 780.179 141.967 774.928 139.993C769.689 138.031 765.055 135.216 761.161 131.627C757.268 128.05 754.138 123.631 751.849 118.495C749.56 113.358 748.404 107.549 748.404 101.213C748.404 94.8764 749.56 89.1009 751.849 84.0206C754.126 78.9403 757.257 74.5778 761.161 71.0452C765.055 67.5125 769.689 64.7874 774.928 62.9145C780.168 61.0416 785.778 60.0996 791.59 60.0996C797.402 60.0996 803.135 61.0416 808.33 62.9145C813.514 64.7761 818.147 67.5125 822.097 71.0452C826.035 74.5778 829.199 78.9403 831.477 84.0206C833.766 89.1121 834.921 94.8989 834.921 101.213C834.921 107.527 833.766 113.347 831.477 118.495C829.199 123.631 826.035 128.05 822.097 131.627C818.147 135.205 813.514 138.019 808.33 139.993C803.135 141.967 797.503 142.965 791.59 142.965ZM791.59 81.3627C788.583 81.3627 785.901 81.9459 783.612 83.0786C781.324 84.2225 779.405 85.7252 777.902 87.5308C776.398 89.3476 775.242 91.4784 774.457 93.8671C773.683 96.2558 773.279 98.7231 773.279 101.213C773.279 103.702 773.672 106.181 774.457 108.558C775.231 110.947 776.42 113.123 777.98 115.052C779.54 116.969 781.481 118.528 783.77 119.661C786.047 120.805 788.729 121.377 791.747 121.377C794.765 121.377 797.447 120.794 799.724 119.661C802.013 118.517 803.954 116.969 805.514 115.052C807.073 113.134 808.251 110.947 809.037 108.558C809.811 106.181 810.215 103.702 810.215 101.213C810.215 98.7231 809.789 96.2558 808.958 93.8671C808.128 91.4784 806.916 89.3476 805.357 87.5308C803.797 85.714 801.856 84.2225 799.567 83.0786C797.278 81.9347 794.597 81.3627 791.59 81.3627V81.3627Z" fill="#171725"/>
<path d="M886.264 177.989C879.419 177.989 872.284 176.934 865.069 174.86C857.855 172.785 851.515 169.735 846.22 165.787L859.044 147.496C862.78 150.815 866.965 153.316 871.476 154.92C875.997 156.524 880.497 157.342 884.85 157.342C892.322 157.342 897.932 155.346 901.511 151.399C905.091 147.451 906.908 142.146 906.908 135.608V130.393L905.786 131.728C903.475 134.464 900.423 136.718 896.743 138.423C892.693 140.296 888.014 141.238 882.819 141.238C876.895 141.238 871.588 140.161 867.021 138.031C862.455 135.911 858.539 132.984 855.364 129.35C852.2 125.728 849.754 121.433 848.093 116.61C846.433 111.788 845.591 106.607 845.591 101.213C845.591 95.8184 846.433 90.6148 848.093 85.7364C849.754 80.858 852.2 76.4955 855.364 72.761C858.528 69.0265 862.444 65.9985 867.021 63.7668C871.588 61.535 876.85 60.4023 882.662 60.4023C887.531 60.4023 892.266 61.4005 896.743 63.3742C900.749 65.1462 904.103 67.8377 906.695 71.3928L907.84 72.9628V60.4136H932.086V133.119C932.086 140.688 930.975 147.372 928.798 152.98C926.622 158.576 923.514 163.286 919.576 166.976C915.626 170.654 910.757 173.447 905.102 175.263C899.436 177.08 893.097 178 886.252 178L886.264 177.989ZM888.766 81.3626C885.86 81.3626 883.257 81.8897 881.024 82.9215C878.791 83.9645 876.872 85.3775 875.313 87.1382C873.753 88.9101 872.542 91.0185 871.711 93.396C870.881 95.7736 870.455 98.3529 870.455 101.056C870.455 103.758 870.881 106.181 871.711 108.558C872.542 110.947 873.753 113.078 875.313 114.895C876.872 116.711 878.791 118.181 881.024 119.268C883.257 120.356 885.86 120.906 888.766 120.906C891.672 120.906 894.331 120.356 896.665 119.268C898.998 118.181 900.995 116.734 902.611 114.973C904.216 113.212 905.483 111.104 906.37 108.715C907.256 106.327 907.705 103.747 907.705 101.056C907.705 98.3642 907.256 95.9418 906.37 93.553C905.483 91.1643 904.204 89.0335 902.533 87.2167C900.872 85.3999 898.875 83.9532 896.586 82.9215C894.297 81.8785 891.672 81.3626 888.766 81.3626V81.3626Z" fill="#171725"/>
<path d="M977.897 29.7751H951.777V140.476H977.897V29.7751Z" fill="#171725"/>
<path d="M1022.95 142.337C1019.83 142.337 1016.57 141.911 1013.25 141.081C1009.93 140.251 1006.86 138.883 1004.1 137.022C1001.35 135.16 999.058 132.625 997.296 129.519C995.535 126.412 994.637 122.521 994.637 117.945C994.637 112.338 996.186 107.762 999.249 104.342C1002.31 100.921 1006.31 98.2411 1011.14 96.3682C1015.97 94.4954 1021.42 93.2393 1027.33 92.6113C1033.02 92.0169 1038.65 91.7029 1044.06 91.6692H1044.7V90.4132C1044.7 86.5217 1043.37 83.7292 1040.64 81.89C1037.93 80.0732 1034.57 79.1536 1030.63 79.1536C1027 79.1536 1023.44 79.9387 1020.07 81.4975C1016.7 83.0563 1013.78 84.9516 1011.39 87.1273L998.407 73.2098C1002.97 68.8585 1008.37 65.539 1014.44 63.3633C1020.51 61.1876 1026.8 60.0774 1033.13 60.0774C1039.46 60.0774 1045.27 60.8961 1049.79 62.4998C1054.3 64.1147 1058.02 66.638 1060.82 70.0024C1063.63 73.378 1065.7 77.6845 1067.01 82.8208C1068.31 87.9572 1068.96 94.1477 1068.96 101.191V140.431H1045.5V131.571L1044.34 133.175C1042.38 135.9 1039.58 138.087 1036.03 139.646C1032.03 141.407 1027.64 142.304 1022.97 142.304L1022.95 142.337ZM1042.19 106.529C1039.42 106.529 1036.54 106.663 1033.66 106.921C1030.81 107.179 1028.23 107.684 1026 108.402C1023.76 109.131 1021.89 110.207 1020.44 111.609C1018.97 113.033 1018.26 114.839 1018.26 117.16C1018.26 118.618 1018.59 119.874 1019.28 120.917C1019.95 121.949 1020.81 122.801 1021.86 123.418C1022.9 124.035 1024.1 124.484 1025.46 124.753C1026.8 125.011 1028.12 125.145 1029.37 125.145C1034.56 125.145 1038.59 123.698 1041.35 120.85C1044.09 118.001 1045.49 114.076 1045.49 109.198V106.54H1042.2L1042.19 106.529Z" fill="#171725"/>
<path d="M1115.59 142.965C1109.26 142.965 1102.97 141.945 1096.9 139.915C1090.83 137.896 1085.69 134.868 1081.65 130.921L1096.04 115.758C1098.33 118.248 1101.17 120.356 1104.49 122.016C1107.81 123.676 1111.39 124.517 1115.13 124.517C1117.2 124.517 1119.29 124.012 1121.31 123.037C1123.33 122.05 1124.36 120.289 1124.36 117.799C1124.36 115.31 1123.09 113.627 1120.61 112.484C1118.12 111.34 1114.17 110.128 1108.88 108.884C1106.16 108.256 1103.44 107.415 1100.74 106.383C1098.04 105.351 1095.59 103.927 1093.47 102.166C1091.34 100.405 1089.58 98.196 1088.23 95.5942C1086.89 93.0036 1086.2 89.8523 1086.2 86.2187C1086.2 81.5534 1087.2 77.5273 1089.18 74.2526C1091.14 70.9891 1093.72 68.2864 1096.84 66.2004C1099.95 64.1257 1103.45 62.5781 1107.24 61.5912C1111.03 60.6043 1114.85 60.1108 1118.58 60.1108C1124.4 60.1108 1130.15 61.0304 1135.71 62.8472C1141.26 64.664 1146.02 67.4228 1149.87 71.0564L1135.78 85.6019C1133.71 83.6281 1131.23 81.9459 1128.44 80.6001C1125.63 79.2544 1122.63 78.5703 1119.52 78.5703C1117.13 78.5703 1114.89 79.0413 1112.87 79.9721C1110.85 80.9029 1109.82 82.5403 1109.82 84.8169C1109.82 87.0934 1110.95 88.5738 1113.19 89.5046C1115.42 90.4354 1119.08 91.4896 1124.06 92.6335C1126.97 93.2615 1129.94 94.1475 1132.9 95.2914C1135.86 96.4353 1138.57 97.9605 1140.96 99.8221C1143.34 101.684 1145.29 104.005 1146.75 106.697C1148.2 109.4 1148.93 112.663 1148.93 116.386C1148.93 121.265 1147.94 125.448 1145.96 128.812C1143.99 132.188 1141.38 134.947 1138.22 137.021C1135.05 139.096 1131.45 140.621 1127.5 141.552C1123.55 142.483 1119.56 142.954 1115.61 142.954L1115.59 142.965Z" fill="#171725"/>
<path d="M1193.24 142.965C1186.91 142.965 1180.62 141.945 1174.55 139.915C1168.47 137.885 1163.34 134.868 1159.3 130.921L1173.7 115.758C1175.99 118.248 1178.82 120.356 1182.15 122.016C1185.47 123.676 1189.05 124.517 1192.78 124.517C1194.86 124.517 1196.93 124.012 1198.96 123.037C1200.98 122.05 1202.02 120.289 1202.02 117.799C1202.02 115.31 1200.75 113.627 1198.26 112.484C1195.77 111.34 1191.82 110.128 1186.52 108.884C1183.81 108.256 1181.08 107.415 1178.39 106.383C1175.68 105.351 1173.24 103.927 1171.12 102.166C1168.98 100.405 1167.22 98.196 1165.88 95.5942C1164.53 93.0036 1163.85 89.8523 1163.85 86.2187C1163.85 81.5534 1164.84 77.5273 1166.82 74.2526C1168.78 70.9891 1171.36 68.2864 1174.48 66.2004C1177.59 64.1257 1181.09 62.5781 1184.88 61.5912C1188.68 60.6043 1192.49 60.1108 1196.23 60.1108C1202.04 60.1108 1207.79 61.0304 1213.36 62.8472C1218.91 64.664 1223.68 67.4228 1227.52 71.0564L1213.44 85.6019C1211.36 83.6281 1208.88 81.9459 1206.09 80.6001C1203.28 79.2544 1200.29 78.5703 1197.17 78.5703C1194.78 78.5703 1192.55 79.0413 1190.53 79.9721C1188.51 80.9029 1187.47 82.5403 1187.47 84.8169C1187.47 87.0934 1188.61 88.5738 1190.84 89.5046C1193.07 90.4354 1196.73 91.4896 1201.71 92.6335C1204.62 93.2615 1207.59 94.1475 1210.55 95.2914C1213.52 96.4353 1216.22 97.9605 1218.61 99.8221C1220.99 101.684 1222.94 104.005 1224.4 106.697C1225.85 109.4 1226.59 112.663 1226.59 116.386C1226.59 121.265 1225.59 125.448 1223.61 128.812C1221.64 132.188 1219.04 134.947 1215.87 137.021C1212.71 139.096 1209.11 140.621 1205.16 141.552C1201.21 142.483 1197.21 142.954 1193.26 142.954L1193.24 142.965Z" fill="#171725"/>
<rect y="20" width="296" height="148" rx="74" fill="#171725"/>
<path d="M120 120L120 98.24C120 97.12 119.92 96.0533 119.76 95.04C119.6 93.9733 119.307 93.0667 118.88 92.32C118.453 91.5733 117.867 90.9867 117.12 90.56C116.427 90.08 115.493 89.84 114.32 89.84C113.2 89.84 112.213 90.08 111.36 90.56C110.56 91.04 109.867 91.68 109.28 92.48C108.747 93.28 108.347 94.2133 108.08 95.28C107.813 96.2933 107.68 97.36 107.68 98.48L107.68 120H94.56V97.28C94.56 94.9867 94.1067 93.1733 93.2 91.84C92.2933 90.5067 90.8533 89.84 88.88 89.84C86.8 89.84 85.1733 90.6667 84 92.32C82.88 93.9733 82.32 96 82.32 98.4V120H69.12L69.12 80.16H81.84V85.68H82C82.48 84.8267 83.0667 84 83.76 83.2C84.5067 82.4 85.3867 81.7067 86.4 81.12C87.4133 80.48 88.5333 79.9733 89.76 79.6C91.04 79.2267 92.4267 79.04 93.92 79.04C96.8 79.04 99.2267 79.6267 101.2 80.8C103.227 81.9733 104.8 83.6533 105.92 85.84C107.253 83.76 108.96 82.1067 111.04 80.88C113.12 79.6533 115.653 79.04 118.64 79.04C121.36 79.04 123.627 79.5467 125.44 80.56C127.307 81.52 128.8 82.8 129.92 84.4C131.04 85.9467 131.84 87.7067 132.32 89.68C132.853 91.6 133.12 93.4933 133.12 95.36V120H120ZM156.466 67.44C156.466 68.4533 156.253 69.4133 155.826 70.32C155.453 71.1733 154.92 71.92 154.226 72.56C153.586 73.2 152.786 73.7067 151.826 74.08C150.92 74.4533 149.96 74.64 148.946 74.64C146.813 74.64 145.026 73.9467 143.586 72.56C142.146 71.12 141.426 69.4133 141.426 67.44C141.426 66.48 141.613 65.5733 141.986 64.72C142.36 63.8133 142.893 63.04 143.586 62.4C144.28 61.76 145.08 61.2533 145.986 60.88C146.893 60.4533 147.88 60.24 148.946 60.24C149.96 60.24 150.92 60.4267 151.826 60.8C152.786 61.1733 153.586 61.68 154.226 62.32C154.92 62.96 155.453 63.7333 155.826 64.64C156.253 65.4933 156.466 66.4267 156.466 67.44ZM142.386 120V80.16H155.506V120H142.386ZM191.258 120V98.24C191.258 97.12 191.151 96.0533 190.938 95.04C190.778 94.0267 190.485 93.1467 190.058 92.4C189.631 91.6 189.018 90.9867 188.218 90.56C187.471 90.08 186.511 89.84 185.338 89.84C184.165 89.84 183.125 90.08 182.218 90.56C181.365 90.9867 180.645 91.6 180.058 92.4C179.471 93.2 179.018 94.1333 178.698 95.2C178.431 96.2133 178.298 97.28 178.298 98.4V120H165.098V80.16L177.818 80.16V85.68H177.978C178.458 84.8267 179.071 84 179.818 83.2C180.618 82.3467 181.525 81.6267 182.538 81.04C183.605 80.4533 184.751 79.9733 185.978 79.6C187.205 79.2267 188.511 79.04 189.898 79.04C192.565 79.04 194.831 79.52 196.698 80.48C198.565 81.44 200.058 82.6933 201.178 84.24C202.351 85.7333 203.178 87.4667 203.658 89.44C204.191 91.4133 204.458 93.3867 204.458 95.36V120L191.258 120ZM227.835 67.44C227.835 68.4533 227.622 69.4133 227.195 70.32C226.822 71.1733 226.288 71.92 225.595 72.56C224.955 73.2 224.155 73.7067 223.195 74.08C222.288 74.4533 221.328 74.64 220.315 74.64C218.182 74.64 216.395 73.9467 214.955 72.56C213.515 71.12 212.795 69.4133 212.795 67.44C212.795 66.48 212.982 65.5733 213.355 64.72C213.728 63.8133 214.262 63.04 214.955 62.4C215.648 61.76 216.448 61.2533 217.355 60.88C218.262 60.4533 219.248 60.24 220.315 60.24C221.328 60.24 222.288 60.4267 223.195 60.8C224.155 61.1733 224.955 61.68 225.595 62.32C226.288 62.96 226.822 63.7333 227.195 64.64C227.622 65.4933 227.835 66.4267 227.835 67.44ZM213.755 120V80.16H226.875V120H213.755Z" fill="white"/>
</svg>
